<?xml version="1.0" encoding="iso-8859-1"?>
<!-- Generator: Adobe Illustrator 16.0.0, SVG Export Plug-In . SVG Version: 6.00 Build 0)  -->
<!DOCTYPE svg PUBLIC "-//W3C//DTD SVG 1.1//EN" "http://www.w3.org/Graphics/SVG/1.1/DTD/svg11.dtd">
<svg xmlns="http://www.w3.org/2000/svg" xmlns:xlink="http://www.w3.org/1999/xlink" version="1.1" id="Capa_1" x="0px" y="0px" width="512px" height="512px" viewBox="0 0 533.333 533.333" style="enable-background:new 0 0 533.333 533.333;" xml:space="preserve">
<g>
	<path d="M443.75,0H89.583C40.312,0,0,40.312,0,89.583V443.75c0,49.271,40.312,89.583,89.583,89.583H443.75   c49.271,0,89.584-40.312,89.584-89.583V89.583C533.333,40.312,493.02,0,443.75,0z M439.411,420.659   c-59.027,19.445-174.306,57.292-195.834,62.674c-21.528,5.383-43.75,14.411-56.25-21.7c0,0-106.25-313.889-115.972-341.667   c-9.722-27.778-19.191-44.524,2.777-53.299C124.849,46.409,177.604,20.573,187.327,50   c8.699,26.326,101.389,316.667,101.389,316.667s109.027-38.369,138.889-46.702c29.861-8.334,40.105-13.89,47.917,27.083   S498.437,401.215,439.411,420.659z" fill="#2e8b57"/>
</g>
<g>
</g>
<g>
</g>
<g>
</g>
<g>
</g>
<g>
</g>
<g>
</g>
<g>
</g>
<g>
</g>
<g>
</g>
<g>
</g>
<g>
</g>
<g>
</g>
<g>
</g>
<g>
</g>
<g>
</g>
</svg>
